<?xml version="1.0" encoding="UTF-8"?>
<svg version="1.1" xmlns="http://www.w3.org/2000/svg" width="360" height="323">
<path d="M0 0 C1.53536495 0.60636139 3.0730926 1.20677908 4.61328125 1.80078125 C8.09678893 3.15119167 11.55439765 4.55506998 15 6 C15 6.66 15 7.32 15 8 C19.94186045 9.17826765 24.80006289 10.16708358 29.859375 10.71484375 C32.31329443 11.04173448 34.70193532 11.55592361 37.125 12.0625 C53.72689618 15.03766881 70.89107226 11.78853912 86.4921875 5.734375 C89.41700347 4.87788683 91.9682044 4.87625324 95 5 C95 4.34 95 3.68 95 3 C98.49750873 1.7015183 101.99842596 0.41247442 105.5 -0.875 C106.48226562 -1.23980469 107.46453125 -1.60460937 108.4765625 -1.98046875 C118.89741012 -5.80144621 127.32760603 -7.36284288 138.5 -7.375 C139.68464844 -7.39949219 140.86929687 -7.42398437 142.08984375 -7.44921875 C149.19462126 -7.47298055 154.00068331 -6.91702958 160 -3 C160.33 -2.34 160.66 -1.68 161 -1 C161.66 -0.690625 162.32 -0.38125 163 -0.0625 C165 1 165 1 166 4 C166.86625 4.1546875 166.86625 4.1546875 167.75 4.3125 C172.05506498 5.62793652 174.39018467 10.09579106 176.8125 13.6875 C178 16 178 16 178 19 C178.69022773 21.85207308 179.46830595 24.67456223 180.24609375 27.50390625 C182.00215779 35.64731202 182.14894187 43.86765938 182.15771484 52.16943359 C182.16279556 53.23736145 182.16787628 54.30528931 182.17311096 55.40557861 C182.18374638 57.70590798 182.19239284 60.00624725 182.19923019 62.30659103 C182.21109344 65.94627926 182.23055987 69.58585277 182.25234985 73.22549438 C182.3137541 83.56712053 182.3681547 93.90872984 182.40136719 104.25048828 C182.42226993 110.59039151 182.45752172 116.93007663 182.50212479 123.2698555 C182.5163021 125.68360461 182.52501111 128.09739221 182.52817917 130.51118088 C182.53306889 133.87666603 182.556172 137.24156659 182.58349609 140.60693359 C182.58048996 141.60542328 182.57748383 142.60391296 182.5743866 143.63265991 C182.58547958 144.54926392 182.59657257 145.46586792 182.60800171 146.4102478 C182.61296693 147.6020015 182.61296693 147.6020015 182.61803246 148.81783104 C183.09617662 151.54945412 184.21184883 152.91484727 186 155 C188.80284141 158.4999852 190.88431806 162.30065375 192.9765625 166.25 C193.34727875 166.94512695 193.717995 167.64025391 194.09994507 168.35644531 C194.87986446 169.82135598 195.65803913 171.28719672 196.43457031 172.75390625 C197.62250843 174.99529892 198.81870611 177.23214294 200.015625 179.46875 C200.77394121 180.89556574 201.53177035 182.32264047 202.2890625 183.75 C202.6463443 184.41676758 203.0036261 185.08353516 203.37173462 185.77050781 C204.97964764 188.8222461 206.26905899 191.62859762 207 195 C207.680625 195.680625 207.680625 195.680625 208.375 196.375 C211.04215771 199.04215771 212.65606208 202.37857839 213.4375 206.0625 C213.90167881 208.15119109 213.90167881 208.15119109 215.64453125 209.94921875 C224.63516562 221.59380489 231.51385356 234.72702242 230.8125 249.6015625 C229.89802928 253.42651216 228.79719126 255.26253525 226 258 C223.9921875 259.109375 223.9921875 259.109375 221.875 259.75 C221.19179688 259.97171875 220.50859375 260.1934375 219.8046875 260.421875 C196.87897843 265.14750862 172.85772002 261.62384297 151 254 C150.58862793 254.43231934 150.17725586 254.86463867 149.75341797 255.31005859 C138.77964385 266.76452478 127.8912119 276.22232272 114 284 C114.4846875 284.64066406 114.969375 285.28132813 115.46875 285.94140625 C117.51641025 290.03150312 117.51473029 293.42634717 117.5 297.9375 C117.52835938 298.72318359 117.55671875 299.50886719 117.5859375 300.31835938 C117.59947944 304.36401371 117.33096652 307.14280444 114.78125 310.37890625 C108.95937145 315.86553617 104.92699255 316.44185839 97.17578125 316.36328125 C96.2331694 316.36377975 95.29055756 316.36427826 94.31938171 316.36479187 C92.33326095 316.36245696 90.34713691 316.35276294 88.36108398 316.33618164 C85.31272135 316.31250172 82.26522865 316.31563593 79.21679688 316.32226562 C77.2864531 316.31669154 75.35611301 316.30958337 73.42578125 316.30078125 C72.05393425 316.30214836 72.05393425 316.30214836 70.65437317 316.30354309 C69.80977036 316.29401108 68.96516754 316.28447906 68.0949707 316.2746582 C67.35060257 316.27005081 66.60623444 316.26544342 65.83930969 316.26069641 C64 316 64 316 62 314 C61.35546875 313.71125 60.7109375 313.4225 60.046875 313.125 C57.56308745 311.75986486 56.69047743 310.41857938 55.25 308 C54.82203125 307.29875 54.3940625 306.5975 53.953125 305.875 C53 304 53 304 53 302 C50.69 302 48.38 302 46 302 C44.92094306 303.89459074 44.92094306 303.89459074 44.75 305.75 C43.39441697 309.81674909 40.67271764 313.05459404 36.94213867 315.16308594 C32.67909187 316.37574252 28.58712942 316.28528304 24.17578125 316.265625 C23.2331694 316.26753845 22.29055756 316.2694519 21.31938171 316.27142334 C19.33327974 316.27278107 17.34716878 316.26911346 15.36108398 316.26074219 C12.31278748 316.25000101 9.26507553 316.26066984 6.21679688 316.2734375 C4.28645703 316.27211654 2.35611755 316.26955545 0.42578125 316.265625 C-0.48878342 316.26967346 -1.40334808 316.27372192 -2.34562683 316.27789307 C-3.61253105 316.26843658 -3.61253105 316.26843658 -4.9050293 316.25878906 C-6.0215815 316.25640228 -6.0215815 316.25640228 -7.16069031 316.25396729 C-9 316 -9 316 -11 314 C-11.639375 313.71125 -12.27875 313.4225 -12.9375 313.125 C-15.57614525 311.68573896 -16.47759365 310.61937311 -18 308 C-18.45316238 305.13761988 -18.73669347 302.49980011 -18.875 299.625 C-18.93429688 298.8825 -18.99359375 298.14 -19.0546875 297.375 C-19.33919926 292.34269823 -18.45568663 289.49987982 -16 285 C-17.26473537 281.20579388 -18.47993244 280.86587531 -21.875 278.875 C-32.95279838 272.02820591 -41.98930938 263.29374896 -51 254 C-52.02996094 254.32613281 -53.05992188 254.65226562 -54.12109375 254.98828125 C-74.74425529 261.38224436 -103.60696064 268.15891664 -124.22265625 258.48828125 C-125.13917969 257.99714844 -126.05570312 257.50601562 -127 257 C-127.99 256.67 -128.98 256.34 -130 256 C-131.4746066 241.51608632 -128.72234501 232.0193582 -121.45507812 219.50927734 C-119.9651986 216.93998511 -118.53174863 214.34548243 -117.109375 211.73828125 C-114.77614024 207.47079898 -112.40093731 203.22973637 -110 199 C-109.34 199 -108.68 199 -108 199 C-107.885354 198.11497803 -107.77070801 197.22995605 -107.65258789 196.31811523 C-107.01341016 193.06818463 -106.10901397 190.81492154 -104.55859375 187.91015625 C-104.06069336 186.9672876 -103.56279297 186.02441895 -103.04980469 185.05297852 C-102.51774414 184.06612061 -101.98568359 183.0792627 -101.4375 182.0625 C-100.89899414 181.04792725 -100.36048828 180.03335449 -99.80566406 178.98803711 C-98.21136086 175.98790454 -96.60631958 172.9937113 -95 170 C-94.1410295 168.38589401 -93.28286758 166.77135727 -92.42578125 165.15625 C-90.62548542 161.7663354 -88.81623407 158.3814005 -87 155 C-86.01 155.33 -85.02 155.66 -84 156 C-84 120.03 -84 84.06 -84 47 C-83.34 46.67 -82.68 46.34 -82 46 C-81.53915749 43.35542665 -81.19968149 40.79070053 -80.9375 38.125 C-80.85516113 37.35937744 -80.77282227 36.59375488 -80.68798828 35.80493164 C-80.05910815 29.87664675 -79.48764736 23.94159807 -79 18 C-78.34 18 -77.68 18 -77 18 C-76.814375 16.5459375 -76.814375 16.5459375 -76.625 15.0625 C-76.41875 14.051875 -76.2125 13.04125 -76 12 C-75.34 11.67 -74.68 11.34 -74 11 C-74 10.34 -74 9.68 -74 9 C-73.34 9 -72.68 9 -72 9 C-71.67 8.01 -71.34 7.02 -71 6 C-69.66666667 5.33333333 -68.33333333 4.66666667 -67 4 C-66.67 3.01 -66.34 2.02 -66 1 C-65.01 0.67 -64.02 0.34 -63 0 C-60.01409556 -1.9172095 -60.01409556 -1.9172095 -57.5 -4.0625 C-43.94777031 -14.56547801 -13.81310125 -5.90463322 0 0 Z M70 12 C74 13 74 13 74 13 Z M31 13 C31 13.33 31 13.66 31 14 C32.65 14 34.3 14 36 14 C36 13.67 36 13.34 36 13 C34.35 13 32.7 13 31 13 Z M65 13 C65 13.33 65 13.66 65 14 C66.65 14 68.3 14 70 14 C70 13.67 70 13.34 70 13 C68.35 13 66.7 13 65 13 Z M36 14 C36 14.33 36 14.66 36 15 C37.98 15 39.96 15 42 15 C42 14.67 42 14.34 42 14 C40.02 14 38.04 14 36 14 Z M58 14 C58 14.33 58 14.66 58 15 C60.31 15 62.62 15 65 15 C65 14.67 65 14.34 65 14 C62.69 14 60.38 14 58 14 Z M43 15 C43 15.33 43 15.66 43 16 C47.62 16 52.24 16 57 16 C57 15.67 57 15.34 57 15 C52.38 15 47.76 15 43 15 Z M-14 284 C-13.67 284.66 -13.34 285.32 -13 286 C-12.67 285.34 -12.34 284.68 -12 284 C-12.66 284 -13.32 284 -14 284 Z M-18 291 C-17 293 -17 293 -17 293 Z M45 300 C45 300.33 45 300.66 45 301 C48.3 301 51.6 301 55 301 C55 300.67 55 300.34 55 300 C51.7 300 48.4 300 45 300 Z M54 302 C55 304 55 304 55 304 Z " fill="#89BF36" transform="translate(130,7)"/>
<path d="M0 0 C2.46800047 1.15173355 4.04783565 2.04783565 6 4 C7.59280546 8.91606623 8.26479098 13.83657587 8 19 C8.50789062 18.4946875 9.01578125 17.989375 9.5390625 17.46875 C15.14540743 12.17736827 15.14540743 12.17736827 19.3125 11.3125 C22.67524102 12.17273608 23.20839839 13.08864739 25 16 C25.73046875 18.578125 25.73046875 18.578125 26.1875 21.25 C26.34605469 22.14203125 26.50460937 23.0340625 26.66796875 23.953125 C26.77753906 24.62859375 26.88710938 25.3040625 27 26 C27.8559375 26.20753906 28.711875 26.41507813 29.59375 26.62890625 C33.8513277 28.34267893 36.33488422 30.68686581 39.5 33.9375 C40.06952393 34.51725586 40.63904785 35.09701172 41.22583008 35.69433594 C51.77443341 46.77771695 54.31360573 57.99243084 54.30078125 72.90234375 C54.30506638 74.02008682 54.3093515 75.1378299 54.31376648 76.28944397 C54.3194825 78.64176764 54.32003029 80.99410897 54.31567383 83.34643555 C54.31251253 86.92332396 54.33601314 90.49938535 54.36132812 94.07617188 C54.36360142 96.3723948 54.36430447 98.66861993 54.36328125 100.96484375 C54.372491 102.02243393 54.38170074 103.08002411 54.39118958 104.16966248 C54.33816156 112.77902036 52.41543213 120.11823354 49 128 C48.34 128 47.68 128 47 128 C46.814375 128.66 46.62875 129.32 46.4375 130 C41.30363943 140.7141438 31.44923514 146.7197724 20.83203125 151.01953125 C8.44056455 155.30954248 -6.74705528 154.80168224 -18.57421875 149.20214844 C-24.97978383 145.82992408 -30.01993492 141.20767317 -35 136 C-35.5671875 135.44441406 -36.134375 134.88882813 -36.71875 134.31640625 C-39.35097807 131.61195241 -39.97995019 129.52129496 -40.125 125.75 C-40.08375 124.8425 -40.0425 123.935 -40 123 C-36.535 122.01 -36.535 122.01 -33 121 C-33.7382974 119.24503078 -34.49118242 117.49619468 -35.25 115.75 C-35.87648437 114.28820312 -35.87648437 114.28820312 -36.515625 112.796875 C-38.02471587 109.9534301 -39.70440079 108.21711719 -42 106 C-42 105.34 -42 104.68 -42 104 C-51.01881305 101.48689254 -61.20044225 99.89554883 -70.21875 103.16796875 C-73.95288639 105.30411442 -76.38718391 106.94357824 -78.5703125 110.70703125 C-79.04210937 111.46371094 -79.51390625 112.22039062 -80 113 C-80.99 113 -81.98 113 -83 113 C-83 115.64 -83 118.28 -83 121 C-81.35 121.66 -79.7 122.32 -78 123 C-77.505 126.96 -77.505 126.96 -77 131 C-77.66 131 -78.32 131 -79 131 C-79.33064453 132.06347656 -79.33064453 132.06347656 -79.66796875 133.1484375 C-81.29629617 136.63429971 -83.58655385 138.98955671 -86.3125 141.625 C-86.78623047 142.10195312 -87.25996094 142.57890625 -87.74804688 143.0703125 C-92.19732458 147.45263801 -96.5995482 150.0216812 -102.4375 152.125 C-103.34371094 152.45757812 -104.24992187 152.79015625 -105.18359375 153.1328125 C-119.02105015 157.39344401 -132.85610507 155.16367301 -146 150 C-146 149.34 -146 148.68 -146 148 C-146.72574219 147.7421875 -147.45148438 147.484375 -148.19921875 147.21875 C-151.12047667 145.94757501 -153.30872649 144.45983598 -155.8125 142.5 C-156.60269531 141.8915625 -157.39289063 141.283125 -158.20703125 140.65625 C-159.09455078 139.83640625 -159.09455078 139.83640625 -160 139 C-160 138.34 -160 137.68 -160 137 C-160.66 137 -161.32 137 -162 137 C-163.1149359 134.88009448 -164.21673501 132.75479674 -165.3125 130.625 C-165.62123047 130.04105469 -165.92996094 129.45710937 -166.24804688 128.85546875 C-170.73720887 120.0661621 -172.46061977 111.78238213 -172.3984375 101.9453125 C-172.40130768 100.9225119 -172.40417786 99.8997113 -172.40713501 98.84591675 C-172.4091637 96.69626304 -172.40371817 94.54659037 -172.39111328 92.39697266 C-172.37507644 89.14052192 -172.39098643 85.88531843 -172.41015625 82.62890625 C-172.43096523 62.33393007 -169.66765849 48.84346947 -155 34 C-148.7972167 28 -148.7972167 28 -145 28 C-144.96261719 27.41992188 -144.92523438 26.83984375 -144.88671875 26.2421875 C-144.38170317 20.24141412 -143.4203251 15.4203251 -139 11 C-136.375 10.875 -136.375 10.875 -134 11 C-134 11.66 -134 12.32 -134 13 C-133.401875 13.2475 -132.80375 13.495 -132.1875 13.75 C-129.68373081 15.18072525 -128.51927612 16.5691582 -127 19 C-127 19.66 -127 20.32 -127 21 C-126.34 21 -125.68 21 -125 21 C-125 17.7 -125 14.4 -125 11 C-124.34 11 -123.68 11 -123 11 C-122.814375 9.081875 -122.814375 9.081875 -122.625 7.125 C-122.25 3.25 -122.25 3.25 -120 1 C-116.05754183 0.56194909 -113.87502441 0.35524517 -110.625 2.75 C-109.05214568 4.92779828 -108.37623037 6.36638744 -108 9 C-107.34 9 -106.68 9 -106 9 C-105.525625 10.093125 -105.05125 11.18625 -104.5625 12.3125 C-100.10688658 21.19234927 -91.05100602 33.47449699 -82 38 C-82 38.66 -82 39.32 -82 40 C-81.29875 40.2475 -80.5975 40.495 -79.875 40.75 C-76.63109126 42.16039511 -73.92843341 44.02649053 -71 46 C-62.3899935 48.87000217 -51.86616509 47.80246703 -43.8203125 43.875 C-42 43 -42 43 -40 43 C-40 42.34 -40 41.68 -40 41 C-38.42578125 39.4140625 -38.42578125 39.4140625 -36.3125 37.625 C-35.21035156 36.68333984 -35.21035156 36.68333984 -34.0859375 35.72265625 C-32.56529566 34.46684529 -31.01061136 33.25192566 -29.4375 32.0625 C-24.78062667 28.12206872 -21.05524142 23.277471 -17.17578125 18.58984375 C-16.68287598 17.9980835 -16.1899707 17.40632324 -15.68212891 16.79663086 C-14.69326544 15.60795946 -13.70976177 14.41480673 -12.73193359 13.21704102 C-11.53145237 11.77403618 -10.27029385 10.38194489 -9 9 C-8.34 9 -7.68 9 -7 9 C-6.6596875 7.88625 -6.6596875 7.88625 -6.3125 6.75 C-4.75592468 3.48860409 -2.91481146 2.07105025 0 0 Z " fill="#A0D53F" transform="translate(238,23)"/>
<path d="M0 0 C5.11450166 3.25176322 8.71773846 7.17857203 11.8125 12.375 C12.1640918 12.91374756 12.51568359 13.45249512 12.87792969 14.00756836 C16.98580666 21.39900832 16.41561829 29.52714779 16.33398438 37.73999023 C16.31257485 40.30353727 16.33383127 42.86427363 16.359375 45.42773438 C16.38148169 58.14425911 14.50591043 67.60859936 5.8125 77.375 C-1.42190034 84.60940034 -9.83461121 87.89848514 -20 88.125 C-30.12595744 88.02773668 -37.99351983 84.91973265 -45.6875 78.1875 C-53.28300234 70.1452034 -56.32772748 62.35660999 -56.390625 51.42578125 C-56.39632507 50.65372849 -56.40202515 49.88167572 -56.40789795 49.08622742 C-56.41732955 47.45308799 -56.42387461 45.81992968 -56.42773438 44.18676758 C-56.43739897 41.71335696 -56.4684218 39.2407925 -56.5 36.76757812 C-56.59042125 23.47641138 -54.75023594 14.5129776 -45.44140625 4.49609375 C-32.28084296 -8.17197445 -15.45499671 -8.39185342 0 0 Z " fill="#FCFDF9" transform="translate(135.1875,68.625)"/>
<path d="M0 0 C0.886875 0.680625 1.77375 1.36125 2.6875 2.0625 C3.698125 2.805 4.70875 3.5475 5.75 4.3125 C11.19576195 8.957835 15.13119935 15.91042418 15.90325928 23.06071472 C16.01677958 25.36763259 16.06940413 27.66696411 16.09375 29.9765625 C16.10515015 30.82745453 16.11655029 31.67834656 16.1282959 32.55502319 C16.14712534 34.35189906 16.16023574 36.1488429 16.16796875 37.94580078 C16.18729801 40.65914586 16.24935823 43.36940153 16.3125 46.08203125 C16.46761836 58.77313556 14.61843924 67.85832498 5.8125 77.5625 C2.12954218 80.95673646 -1.68676465 83.19743305 -6.3125 85.0625 C-7.05628906 85.41957031 -7.80007812 85.77664062 -8.56640625 86.14453125 C-12.08041621 87.3192003 -15.39804027 87.40513182 -19.0625 87.375 C-20.1309314 87.36654053 -20.1309314 87.36654053 -21.22094727 87.35791016 C-31.34662752 87.12481757 -39.91001316 83.6487449 -47.03515625 76.28125 C-54.95282284 66.39935411 -57.0970671 56.6336742 -56.85449219 44.25561523 C-56.81249257 41.99960111 -56.81345357 39.74657589 -56.8203125 37.49023438 C-56.7611998 23.9735955 -54.38865351 13.20087256 -44.8125 3.25 C-32.06996013 -8.7831051 -14.62199804 -8.55248942 0 0 Z " fill="#FCFDFA" transform="translate(262.3125,68.9375)"/>
<path d="M0 0 C6.14499339 3.59424142 9.1149472 7.56931499 11.1875 14.375 C11.58068155 15.89123458 11.96230313 17.41076453 12.3125 18.9375 C9.66511084 20.3981285 8.41801666 20.9375 5.3125 20.9375 C5.374375 21.80375 5.43625 22.67 5.5 23.5625 C5.23085305 28.40714506 3.51488443 31.49463868 0.4375 35.1875 C-5.66227836 40.21084689 -13.18293507 39.63416349 -20.6875 38.9375 C-26.16866327 36.57492962 -28.31757927 33.22424625 -30.6875 27.9375 C-30.9375 24.5 -30.9375 24.5 -30.6875 21.9375 C-32.9975 21.2775 -35.3075 20.6175 -37.6875 19.9375 C-38.53204356 16.55932575 -38.79594919 14.26284757 -37.6875 10.9375 C-36.6975 10.9375 -35.7075 10.9375 -34.6875 10.9375 C-34.501875 10.215625 -34.31625 9.49375 -34.125 8.75 C-32.15137409 4.888558 -29.34586317 3.13714874 -25.6875 0.9375 C-25.12289062 0.56625 -24.55828125 0.195 -23.9765625 -0.1875 C-17.4505772 -2.68207459 -6.67650355 -2.10836954 0 0 Z " fill="#F7C13D" transform="translate(192.6875,125.0625)"/>
<path d="M0 0 C4.90200636 2.24171448 7.78389725 4.91949003 10.87109375 9.31640625 C12.65903903 14.6802421 12.22624244 20.38981858 12.30859375 26.00390625 C12.35435547 27.25880859 12.40011719 28.51371094 12.44726562 29.80664062 C12.5322844 36.82623397 12.22387237 41.45144091 7.4855957 46.82543945 C3.18983393 50.79250692 -0.27946292 52.53277479 -6.19140625 52.81640625 C-10.86455681 52.61075926 -13.5606324 51.4598856 -17.12890625 48.31640625 C-20.95799814 44.0618597 -23.4026941 40.57670751 -23.32421875 34.76953125 C-23.31777344 33.92519531 -23.31132812 33.08085938 -23.3046875 32.2109375 C-23.28792969 31.33824219 -23.27117187 30.46554688 -23.25390625 29.56640625 C-23.24488281 28.67824219 -23.23585937 27.79007813 -23.2265625 26.875 C-23.20305202 24.68852567 -23.17019124 22.50260531 -23.12890625 20.31640625 C-22.11570313 20.16945313 -22.11570313 20.16945313 -21.08203125 20.01953125 C-17.15620421 19.36144464 -13.91364893 18.80219934 -10.50390625 16.69140625 C-8.51040518 13.24808622 -8.43321606 10.20267561 -9.12890625 6.31640625 C-10.50817398 3.97379017 -10.50817398 3.97379017 -12.12890625 2.31640625 C-12.12890625 1.65640625 -12.12890625 0.99640625 -12.12890625 0.31640625 C-8.29742832 -1.59933271 -3.99319994 -1.28222016 0 0 Z " fill="#4F4F4F" transform="translate(242.12890625,83.68359375)"/>
<path d="M0 0 C5.06508622 2.35232469 8.29696266 5.20330032 10.8359375 10.28125 C11.07099356 14.49089038 11.06436397 18.70450076 11.07617188 22.91992188 C11.08583702 25.00952579 11.1168402 27.09812869 11.1484375 29.1875 C11.15497203 30.52603585 11.16022073 31.86457871 11.1640625 33.203125 C11.17808105 35.02215332 11.17808105 35.02215332 11.19238281 36.87792969 C10.73150773 41.27833967 9.33051416 44.64266465 6.3359375 47.92578125 C0.62396886 52.37338183 -4.07919545 53.06722744 -11.1640625 52.28125 C-16.04085772 49.88885989 -18.97361854 46.56556045 -22.1640625 42.28125 C-23.10543505 39.45713235 -23.28131632 37.75206968 -23.26171875 34.83203125 C-23.25849609 33.98447266 -23.25527344 33.13691406 -23.25195312 32.26367188 C-23.24357422 31.38259766 -23.23519531 30.50152344 -23.2265625 29.59375 C-23.22205078 28.70107422 -23.21753906 27.80839844 -23.21289062 26.88867188 C-23.20111233 24.68613013 -23.18466414 22.48372401 -23.1640625 20.28125 C-22.15085937 20.13429688 -22.15085937 20.13429688 -21.1171875 19.984375 C-17.19136046 19.32628839 -13.94880518 18.76704309 -10.5390625 16.65625 C-8.54556143 13.21292997 -8.46837231 10.16751936 -9.1640625 6.28125 C-10.54333023 3.93863392 -10.54333023 3.93863392 -12.1640625 2.28125 C-12.1640625 1.62125 -12.1640625 0.96125 -12.1640625 0.28125 C-8.31586373 -1.64284938 -3.99688777 -1.32748619 0 0 Z " fill="#4D4D4D" transform="translate(127.1640625,83.71875)"/>
<path d="M0 0 C7.23435917 0.48229061 13.60607722 3.42748966 19.828125 7.0703125 C23.11200597 8.47600255 26.55617747 8.89037055 30.0625 9.4375 C35.11069294 10.2677068 40.02046404 11.18088486 44.9375 12.625 C49.9280652 14.08696005 54.81990151 14.67413697 60 15 C60.46693504 19.66935037 60.85149069 23.6102711 57.8125 27.4375 C52.32452646 32.43765367 47.26839463 32.29723142 40.17578125 32.265625 C38.76186348 32.26849518 38.76186348 32.26849518 37.31938171 32.27142334 C35.33327974 32.27278107 33.34716878 32.26911346 31.36108398 32.26074219 C28.31278748 32.25000101 25.26507553 32.26066984 22.21679688 32.2734375 C20.28645703 32.27211654 18.35611755 32.26955545 16.42578125 32.265625 C15.05393425 32.27169769 15.05393425 32.27169769 13.65437317 32.27789307 C12.80977036 32.27158875 11.96516754 32.26528442 11.0949707 32.25878906 C10.35060257 32.25719788 9.60623444 32.25560669 8.83930969 32.25396729 C7 32 7 32 5 30 C4.360625 29.71125 3.72125 29.4225 3.0625 29.125 C0.42385475 27.68573896 -0.47759365 26.61937311 -2 24 C-2.45316238 21.13761988 -2.73669347 18.49980011 -2.875 15.625 C-2.93429688 14.8825 -2.99359375 14.14 -3.0546875 13.375 C-3.3354285 8.40939364 -2.61480632 5.37607483 0 1 C0 0.67 0 0.34 0 0 Z M-2 7 C-1 9 -1 9 -1 9 Z " fill="#EA932F" transform="translate(114,291)"/>
<path d="M0 0 C2.69608254 2.45454488 3.23004906 4.61182726 3.46875 8.1171875 C3.4952233 9.70293824 3.50512428 11.28903657 3.5 12.875 C3.52835938 13.66519531 3.55671875 14.45539063 3.5859375 15.26953125 C3.59944899 19.32973252 3.34151594 22.1343246 0.78125 25.3828125 C-5.04334461 30.86382147 -9.07385886 31.44184975 -16.82421875 31.36328125 C-17.7668306 31.36377975 -18.70944244 31.36427826 -19.68061829 31.36479187 C-21.66673905 31.36245696 -23.65286309 31.35276294 -25.63891602 31.33618164 C-28.68727865 31.31250172 -31.73477135 31.31563593 -34.78320312 31.32226562 C-36.7135469 31.31669154 -38.64388699 31.30958337 -40.57421875 31.30078125 C-41.94606575 31.30214836 -41.94606575 31.30214836 -43.34562683 31.30354309 C-44.19022964 31.29401108 -45.03483246 31.28447906 -45.9050293 31.2746582 C-46.64939743 31.27005081 -47.39376556 31.26544342 -48.16069031 31.26069641 C-50 31 -50 31 -52 29 C-52.61875 28.7525 -53.2375 28.505 -53.875 28.25 C-57.04567327 26.38489808 -58.29388422 24.22943345 -60 21 C-60.06881445 18.66768162 -60.07745827 16.33204731 -60 14 C-58.93471069 13.88724731 -58.93471069 13.88724731 -57.84790039 13.7722168 C-54.58489954 13.42093108 -51.32378884 13.05432656 -48.0625 12.6875 C-46.94552734 12.56955078 -45.82855469 12.45160156 -44.67773438 12.33007812 C-38.78268224 11.65586395 -33.41285167 10.71734972 -27.83911133 8.66674805 C-25.6909728 7.88796585 -23.56263475 7.44395142 -21.3125 7.0625 C-17.17432648 6.20756485 -14.45540456 4.45717657 -11 2 C-7.29141444 0.48629161 -4.00968278 -0.65021883 0 0 Z " fill="#EA932F" transform="translate(244,292)"/>
<path d="M0 0 C12.54 0 25.08 0 38 0 C36.59302326 8.44186047 36.59302326 8.44186047 33.875 11 C27.060616 15.74044104 21.26088543 17.07379308 13 16 C7.56286625 14.2601172 2.80338684 9.93930063 0 5 C0 3.35 0 1.7 0 0 Z " fill="#9FD53E" transform="translate(132,216)"/>
<path d="M0 0 C12.21 0 24.42 0 37 0 C38 5 38 5 36.6875 7.8125 C36.130625 8.534375 35.57375 9.25625 35 10 C34.34 10 33.68 10 33 10 C33 10.66 33 11.32 33 12 C24.23450579 16.02350554 17.46101192 17.57896448 8.12109375 14.1796875 C4.34561818 12.07988341 1.8164305 8.88929825 0 5 C0 3.35 0 1.7 0 0 Z " fill="#9ED53E" transform="translate(190,216)"/>
<path d="M0 0 C12.21 0 24.42 0 37 0 C37 6.48284797 36.74484908 7.20793569 32.6875 11.453125 C27.66136507 16.06041535 22.7354918 16.64931175 16.11328125 16.484375 C10.02874929 15.5377226 4.89596851 12.55434878 1.22265625 7.60546875 C0 5 0 5 0 0 Z " fill="#9ED53D" transform="translate(161,243)"/>
<path d="M0 0 C0.93972656 0.16242188 1.87945312 0.32484375 2.84765625 0.4921875 C7.70616562 1.18364244 12.53863528 1.14589068 17.4375 1.125 C18.79198242 1.13080078 18.79198242 1.13080078 20.17382812 1.13671875 C25.54096577 1.12894592 30.68973635 0.78256517 36 0 C35.44081424 5.70369471 34.22937817 9.26394497 30.625 13.6875 C24.79454568 18.3967131 17.05385089 17.65482282 10 17 C4.51883673 14.63742962 2.36992073 11.28674625 0 6 C-0.25 2.5625 -0.25 2.5625 0 0 Z " fill="#E6952F" transform="translate(162,147)"/>
<path d="M0 0 C1.84271484 -0.02513672 1.84271484 -0.02513672 3.72265625 -0.05078125 C6.9375 0.3125 6.9375 0.3125 8.93359375 1.58203125 C9.9375 3.3125 9.9375 3.3125 9.625 5.5 C9.2846875 6.3971875 9.2846875 6.3971875 8.9375 7.3125 C8.08285156 7.30089844 7.22820312 7.28929687 6.34765625 7.27734375 C5.24292969 7.26832031 4.13820312 7.25929687 3 7.25 C1.34677734 7.23259766 1.34677734 7.23259766 -0.33984375 7.21484375 C-2.97697634 6.99987429 -2.97697634 6.99987429 -4.0625 8.3125 C-6.40194736 8.02519945 -8.7364143 7.69313221 -11.0625 7.3125 C-11.0625 5.6625 -11.0625 4.0125 -11.0625 2.3125 C-7.41856579 0.02020054 -4.24488863 0.01339082 0 0 Z " fill="#FED746" transform="translate(181.0625,126.6875)"/>
<path d="M0 0 C0.33 0 0.66 0 1 0 C1 36.3 1 72.6 1 110 C0.67 110 0.34 110 0 110 C0 73.7 0 37.4 0 0 Z " fill="#90B74E" transform="translate(313,48)"/>
<path d="M0 0 C0.66 0.99 1.32 1.98 2 3 C0.90033225 4.29549899 -0.20491801 5.58626071 -1.3125 6.875 C-1.92738281 7.59429687 -2.54226562 8.31359375 -3.17578125 9.0546875 C-6.34804309 12.43752775 -9.54952612 13.92858962 -14 15 C-18.81014246 14.94154341 -22.76195688 14.33955321 -27 12 C-23.2727767 10.13638835 -18.67016846 11.10980242 -14.578125 11.2578125 C-10.00596468 10.92837737 -6.83439305 9.44130883 -3.25 6.625 C-1.66408582 4.56331156 -0.8583265 2.44292928 0 0 Z " fill="#A5B233" transform="translate(197,152)"/>
<path d="M0 0 C4.20823663 0.66545911 8.34437942 1.50054349 12.5 2.4375 C19.63335279 3.98889016 26.76124065 5.06490191 34 6 C33.67 6.66 33.34 7.32 33 8 C30.77027727 7.88534579 28.54121247 7.75785234 26.3125 7.625 C25.07113281 7.55539062 23.82976562 7.48578125 22.55078125 7.4140625 C19.24762693 7.02887619 17.02485659 6.27974702 14 5 C11.90550831 4.57426894 9.79996789 4.19999506 7.6875 3.875 C6.61886719 3.70742188 5.55023438 3.53984375 4.44921875 3.3671875 C3.23685547 3.18542969 3.23685547 3.18542969 2 3 C2 2.34 2 1.68 2 1 C1.34 0.67 0.68 0.34 0 0 Z " fill="#D29D32" transform="translate(140,300)"/>
<path d="M0 0 C0.33 0.66 0.66 1.32 1 2 C-4.70601593 8.04166392 -10.4809764 12.7786962 -18.98828125 13.1953125 C-20.42981792 13.18214778 -21.87129219 13.15848651 -23.3125 13.125 C-24.05306641 13.11597656 -24.79363281 13.10695312 -25.55664062 13.09765625 C-27.37123467 13.07424213 -29.18566071 13.03837615 -31 13 C-31 12.67 -31 12.34 -31 12 C-30.17757812 11.97421875 -29.35515625 11.9484375 -28.5078125 11.921875 C-16.4459923 11.30903425 -8.60726179 8.55917653 0 0 Z " fill="#A6D258" transform="translate(269,144)"/>
<path d="M0 0 C-4.87002118 2.84084569 -9.81911138 4.07088644 -15.29296875 5.3515625 C-18.07241925 5.97606538 -18.07241925 5.97606538 -21 7 C-22.56118428 7.06740865 -24.1250252 7.08514456 -25.6875 7.0625 C-26.89986328 7.04896484 -26.89986328 7.04896484 -28.13671875 7.03515625 C-29.05904297 7.01775391 -29.05904297 7.01775391 -30 7 C-30 6.67 -30 6.34 -30 6 C-27.36 6 -24.72 6 -22 6 C-22 5.34 -22 4.68 -22 4 C-20.86820313 3.72285156 -19.73640625 3.44570313 -18.5703125 3.16015625 C-17.08851098 2.79439512 -15.60674182 2.42850289 -14.125 2.0625 C-13.37863281 1.88009766 -12.63226563 1.69769531 -11.86328125 1.50976562 C-2.6094778 -0.78284334 -2.6094778 -0.78284334 0 0 Z " fill="#A8B133" transform="translate(230,297)"/>
<path d="M0 0 C0 3 0 3 -1.1875 4.625 C-5.47116648 7.87467802 -11.17249458 7.12221409 -16.3125 7.0625 C-17.05306641 7.05798828 -17.79363281 7.05347656 -18.55664062 7.04882812 C-20.37112899 7.03712175 -22.18557534 7.01918898 -24 7 C-24 6.67 -24 6.34 -24 6 C-23.18917969 5.98582031 -22.37835938 5.97164062 -21.54296875 5.95703125 C-13.33657365 5.60355439 -7.20999459 3.91564837 0 0 Z " fill="#ABD45E" transform="translate(135,150)"/>
<path d="M0 0 C2.31 0.33 4.62 0.66 7 1 C7 1.33 7 1.66 7 2 C5.35 2 3.7 2 2 2 C2 7.61 2 13.22 2 19 C1.34 19 0.68 19 0 19 C0 12.73 0 6.46 0 0 Z " fill="#5E5E5E" transform="translate(104,104)"/>
<path d="M0 0 C-0.33 0.99 -0.66 1.98 -1 3 C-7.27 3 -13.54 3 -20 3 C-20 2.67 -20 2.34 -20 2 C-17.60468244 1.66254646 -15.20885732 1.3299171 -12.8125 1 C-11.80219727 0.85691406 -11.80219727 0.85691406 -10.77148438 0.7109375 C-7.15335423 0.21675387 -3.65203599 -0.11346131 0 0 Z " fill="#CE9E33" transform="translate(204,304)"/>
<path d="M0 0 C0.61875 0.70125 1.2375 1.4025 1.875 2.125 C5.07104178 5.35788376 8.86385991 7.43538666 12.79296875 9.66796875 C15 11 15 11 17 13 C15.35 13 13.7 13 12 13 C12 12.34 12 11.68 12 11 C11.13375 10.814375 10.2675 10.62875 9.375 10.4375 C5.04295472 8.5923696 2.59040853 5.89479864 0 2 C0 1.34 0 0.68 0 0 Z " fill="#A8D25C" transform="translate(86,142)"/>
<path d="M0 0 C0.33 0 0.66 0 1 0 C0.37344303 11.12678764 0.37344303 11.12678764 -3 15 C-5.10546875 15.62109375 -5.10546875 15.62109375 -7 16 C-6.57847656 15.18015625 -6.15695313 14.3603125 -5.72265625 13.515625 C-4.90087891 11.89914063 -4.90087891 11.89914063 -4.0625 10.25 C-3.51722656 9.18265625 -2.97195312 8.1153125 -2.41015625 7.015625 C-1.28783725 4.61554115 -0.49498341 2.58143248 0 0 Z " fill="#ADD662" transform="translate(150,128)"/>
<path d="M0 0 C0 0.33 0 0.66 0 1 C-1.30324219 1.16435547 -1.30324219 1.16435547 -2.6328125 1.33203125 C-8.70413643 2.16734763 -13.58168357 3.01992596 -19 6 C-21.875 6.1875 -21.875 6.1875 -24 6 C-16.78569104 -0.31252034 -9.10897915 -0.40990406 0 0 Z " fill="#E7F8C4" transform="translate(120,63)"/>
<path d="M0 0 C5.36513131 0.847126 10.6787385 1.91681831 16 3 C16 3.33 16 3.66 16 4 C6.58997722 4.18451025 6.58997722 4.18451025 2 3 C2 2.34 2 1.68 2 1 C1.34 0.67 0.68 0.34 0 0 Z " fill="#BFA632" transform="translate(140,300)"/>
<path d="M0 0 C0.66 0.33 1.32 0.66 2 1 C2 2.32 2 3.64 2 5 C1.34 5 0.68 5 0 5 C0 5.66 0 6.32 0 7 C-1.95927063 8.7143618 -3.95880212 10.38405168 -6 12 C-6 10.02 -6 8.04 -6 6 C-3.69 5.34 -1.38 4.68 1 4 C0.67 2.68 0.34 1.36 0 0 Z " fill="#B6CC3B" transform="translate(204,140)"/>
<path d="M0 0 C-0.55558594 0.27457031 -1.11117187 0.54914063 -1.68359375 0.83203125 C-3.29046058 1.64223898 -4.88625826 2.4746312 -6.47265625 3.32421875 C-7.75462891 3.99904297 -7.75462891 3.99904297 -9.0625 4.6875 C-9.91972656 5.14511719 -10.77695313 5.60273438 -11.66015625 6.07421875 C-14 7 -14 7 -17 6 C-11.5168792 2.08348515 -6.8501727 -0.40295134 0 0 Z " fill="#D09D32" transform="translate(244,292)"/>
<path d="M0 0 C0.66 0.33 1.32 0.66 2 1 C-0.67031284 3.67733998 -2.03721441 4.00280229 -5.890625 4.29296875 C-7.34404009 4.27314945 -8.79731167 4.23754845 -10.25 4.1875 C-10.99507812 4.17396484 -11.74015625 4.16042969 -12.5078125 4.14648438 C-14.33885416 4.11127204 -16.16952169 4.05746851 -18 4 C-18 3.67 -18 3.34 -18 3 C-17.11957031 2.95101562 -16.23914063 2.90203125 -15.33203125 2.8515625 C-14.17058594 2.77679688 -13.00914062 2.70203125 -11.8125 2.625 C-10.08966797 2.52058594 -10.08966797 2.52058594 -8.33203125 2.4140625 C-5.19277934 2.02395617 -2.89898295 1.1843092 0 0 Z " fill="#ADD568" transform="translate(256,153)"/>
<path d="M0 0 C2.20805524 -0.0544452 4.41650554 -0.09299283 6.625 -0.125 C7.85476562 -0.14820313 9.08453125 -0.17140625 10.3515625 -0.1953125 C13.94316041 -0.0030428 16.66661175 0.69741444 20 2 C19.01 2.66 18.02 3.32 17 4 C16.47921875 3.68289062 15.9584375 3.36578125 15.421875 3.0390625 C12.32591291 1.71079489 9.60595879 1.57635753 6.25 1.375 C4.49429688 1.26285156 4.49429688 1.26285156 2.703125 1.1484375 C1.81109375 1.09945312 0.9190625 1.05046875 0 1 C0 0.67 0 0.34 0 0 Z " fill="#F7FEE4" transform="translate(110,64)"/>
<path d="M0 0 C2.31 0.33 4.62 0.66 7 1 C7 1.66 7 2.32 7 3 C7.78375 2.938125 8.5675 2.87625 9.375 2.8125 C10.674375 2.9053125 10.674375 2.9053125 12 3 C12.99 4.485 12.99 4.485 14 6 C8.93001981 5.34580901 4.58009223 3.1453591 0 1 C0 0.67 0 0.34 0 0 Z " fill="#A9B133" transform="translate(126,294)"/>
<path d="M0 0 C0.66 0.99 1.32 1.98 2 3 C0.92492371 4.29854721 -0.16043736 5.58858361 -1.25 6.875 C-1.85328125 7.59429687 -2.4565625 8.31359375 -3.078125 9.0546875 C-4.97087634 10.97052118 -6.53657727 11.96449045 -9 13 C-7.83966126 9.51898379 -6.2377451 8.55223175 -3.43359375 6.33984375 C-1.4657602 4.50069686 -0.73091325 2.55819637 0 0 Z " fill="#9BB835" transform="translate(197,152)"/>
<path d="M0 0 C2.31 0 4.62 0 7 0 C3.98029212 1.56629708 0.91349586 2.87625164 -2.25 4.125 C-3.14203125 4.47820312 -4.0340625 4.83140625 -4.953125 5.1953125 C-5.62859375 5.46085937 -6.3040625 5.72640625 -7 6 C-6.67 4.68 -6.34 3.36 -6 2 C-4.02 2 -2.04 2 0 2 C0 1.34 0 0.68 0 0 Z " fill="#AAD55C" transform="translate(229,63)"/>
<path d="M0 0 C7.26 0 14.52 0 22 0 C22 0.33 22 0.66 22 1 C14.74 1 7.48 1 0 1 C0 0.67 0 0.34 0 0 Z " fill="#8ABE36" transform="translate(315,270)"/>
<path d="M0 0 C7.26 0 14.52 0 22 0 C22 0.33 22 0.66 22 1 C14.74 1 7.48 1 0 1 C0 0.67 0 0.34 0 0 Z " fill="#89BF36" transform="translate(23,270)"/>
<path d="M0 0 C3.84375 1.65625 3.84375 1.65625 5.25 4.75 C5.99129181 7.9622645 6.15632757 10.71712109 6 14 C4.43370292 10.98029212 3.12374836 7.91349586 1.875 4.75 C1.52179688 3.85796875 1.16859375 2.9659375 0.8046875 2.046875 C0.53914063 1.37140625 0.27359375 0.6959375 0 0 Z " fill="#AAD25D" transform="translate(273,80)"/>
<path d="M0 0 C0.66 0 1.32 0 2 0 C2.66 3.3 3.32 6.6 4 10 C3.01 10 2.02 10 1 10 C0.67 6.7 0.34 3.4 0 0 Z " fill="#BDAD34" transform="translate(160,147)"/>
<path d="M0 0 C0.33 0 0.66 0 1 0 C1.05422947 1.4370809 1.09289723 2.87475462 1.125 4.3125 C1.14820313 5.11300781 1.17140625 5.91351563 1.1953125 6.73828125 C1 9 1 9 -1 12 C-1.66 11.67 -2.32 11.34 -3 11 C-2.690625 10.29875 -2.38125 9.5975 -2.0625 8.875 C-0.96697322 5.91063343 -0.43577008 3.12301892 0 0 Z " fill="#A8D35C" transform="translate(278,124)"/>
<path d="M0 0 C0.66 0.33 1.32 0.66 2 1 C-0.31 3.31 -2.62 5.62 -5 8 C-5 5 -5 5 -2.5 2.3125 C-1.675 1.549375 -0.85 0.78625 0 0 Z " fill="#E1C741" transform="translate(164,128)"/>
<path d="M0 0 C1.65 0 3.3 0 5 0 C5.33 1.32 5.66 2.64 6 4 C6.66 4 7.32 4 8 4 C7.67 4.66 7.34 5.32 7 6 C5.83054208 5.19152271 4.66449539 4.37810888 3.5 3.5625 C2.8503125 3.11003906 2.200625 2.65757813 1.53125 2.19140625 C1.0259375 1.79824219 0.520625 1.40507813 0 1 C0 0.67 0 0.34 0 0 Z " fill="#ADD662" transform="translate(261,68)"/>
<path d="M0 0 C0.33 0 0.66 0 1 0 C1 3.63 1 7.26 1 11 C0.67 11 0.34 11 0 11 C0 7.37 0 3.74 0 0 Z " fill="#8BBE37" transform="translate(47,42)"/>
<path d="M0 0 C3.3 0 6.6 0 10 0 C10 0.33 10 0.66 10 1 C6.7 1 3.4 1 0 1 C0 0.67 0 0.34 0 0 Z " fill="#8DB84C" transform="translate(337,269)"/>
<path d="M0 0 C0.33 0 0.66 0 1 0 C1 2.97 1 5.94 1 9 C0.67 9 0.34 9 0 9 C0 6.03 0 3.06 0 0 Z " fill="#D8964A" transform="translate(110,301)"/>
<path d="M0 0 C2.97 0 5.94 0 9 0 C9 0.33 9 0.66 9 1 C6.03 1 3.06 1 0 1 C0 0.67 0 0.34 0 0 Z " fill="#8EB84C" transform="translate(14,269)"/>
<path d="M0 0 C0 0.99 0 1.98 0 3 C-1.98 3.99 -1.98 3.99 -4 5 C-2.68 3.35 -1.36 1.7 0 0 Z " fill="#88BF39" transform="translate(275,267)"/>
<path d="M0 0 C0.33 0 0.66 0 1 0 C1 2.97 1 5.94 1 9 C0.67 9 0.34 9 0 9 C0 6.03 0 3.06 0 0 Z " fill="#8ABE37" transform="translate(312,39)"/>
<path d="M0 0 C0.33 0 0.66 0 1 0 C1 2.31 1 4.62 1 7 C0.67 7 0.34 7 0 7 C0 4.69 0 2.38 0 0 Z " fill="#E89430" transform="translate(248,301)"/>
<path d="M0 0 C2.31 0 4.62 0 7 0 C7 0.33 7 0.66 7 1 C4.69 1 2.38 1 0 1 C0 0.67 0 0.34 0 0 Z " fill="#8FB84D" transform="translate(308,269)"/>
<path d="M0 0 C2.31 0 4.62 0 7 0 C7 0.33 7 0.66 7 1 C4.69 1 2.38 1 0 1 C0 0.67 0 0.34 0 0 Z " fill="#8CB94B" transform="translate(45,269)"/>
<path d="M0 0 C0.33 0 0.66 0 1 0 C1 1.98 1 3.96 1 6 C0.67 6 0.34 6 0 6 C0 4.02 0 2.04 0 0 Z " fill="#8DB94C" transform="translate(48,36)"/>
<path d="M0 0 C0.33 0 0.66 0 1 0 C1 1.65 1 3.3 1 5 C0.67 5 0.34 5 0 5 C0 3.35 0 1.7 0 0 Z " fill="#8BBA49" transform="translate(311,33)"/>
<path d="M0 0 C0.33 0 0.66 0 1 0 C1 1.65 1 3.3 1 5 C0.67 5 0.34 5 0 5 C0 3.35 0 1.7 0 0 Z " fill="#8BBD37" transform="translate(49,31)"/>
<path d="M0 0 C1 4 1 4 1 4 Z " fill="#DE9542" transform="translate(247,308)"/>
<path d="M0 0 C0.66 0.33 1.32 0.66 2 1 C1.01 1 0.02 1 -1 1 C-0.67 0.67 -0.34 0.34 0 0 Z " fill="#87BF3D" transform="translate(247,289)"/>
<path d="M0 0 C0.99 0.33 1.98 0.66 3 1 C2.01 1 1.02 1 0 1 C0 0.67 0 0.34 0 0 Z " fill="#88BE3D" transform="translate(111,289)"/>
<path d="M0 0 C0.66 0.33 1.32 0.66 2 1 C1.01 1 0.02 1 -1 1 C-0.67 0.67 -0.34 0.34 0 0 Z " fill="#8ABE3A" transform="translate(252,286)"/>
<path d="M0 0 C0.99 0.33 1.98 0.66 3 1 C2.01 1 1.02 1 0 1 C0 0.67 0 0.34 0 0 Z " fill="#89BE3D" transform="translate(99,281)"/>
<path d="M0 0 C4 1 4 1 4 1 Z " fill="#89C035" transform="translate(347,268)"/>
<path d="M0 0 C4 1 4 1 4 1 Z " fill="#89BF36" transform="translate(303,268)"/>
<path d="M0 0 C4 1 4 1 4 1 Z " fill="#89BF37" transform="translate(53,268)"/>
<path d="M0 0 C4 1 4 1 4 1 Z " fill="#8BBF35" transform="translate(9,268)"/>
<path d="M0 0 C4 1 4 1 4 1 Z " fill="#8AB94F" transform="translate(298,267)"/>
<path d="M0 0 C4 1 4 1 4 1 Z " fill="#8EB945" transform="translate(58,267)"/>
<path d="M0 0 C1 4 1 4 1 4 Z " fill="#88C034" transform="translate(310,29)"/>
<path d="" fill="#EB932B" transform="translate(0,0)"/>
<path d="" fill="#E49439" transform="translate(0,0)"/>
<path d="M0 0 C3 1 3 1 3 1 Z " fill="#8BBB43" transform="translate(6,267)"/>
<path d="M0 0 C3 1 3 1 3 1 Z " fill="#8CBC3A" transform="translate(294,266)"/>
<path d="M0 0 C3 1 3 1 3 1 Z " fill="#8BBD3B" transform="translate(63,266)"/>
<path d="M0 0 C3 1 3 1 3 1 Z " fill="#8EBA47" transform="translate(291,265)"/>
<path d="" fill="#8BBB45" transform="translate(0,0)"/>
<path d="M0 0 C3 1 3 1 3 1 Z " fill="#8DB947" transform="translate(151,16)"/>
<path d="M0 0 C3 1 3 1 3 1 Z " fill="#88BF36" transform="translate(148,15)"/>
<path d="M0 0 C3 1 3 1 3 1 Z " fill="#8CBA46" transform="translate(145,14)"/>
<path d="M0 0 C3 1 3 1 3 1 Z " fill="#8EBA42" transform="translate(222,11)"/>
<path d="" fill="#EB922F" transform="translate(0,0)"/>
<path d="M0 0 C2 1 2 1 2 1 Z " fill="#9EB43A" transform="translate(244,291)"/>
<path d="M0 0 C2 1 2 1 2 1 Z " fill="#88BF38" transform="translate(249,288)"/>
<path d="M0 0 C2 1 2 1 2 1 Z " fill="#8BBF34" transform="translate(109,288)"/>
<path d="M0 0 C2 1 2 1 2 1 Z " fill="#89BE3D" transform="translate(106,286)"/>
<path d="M0 0 C2 1 2 1 2 1 Z " fill="#89BF38" transform="translate(255,284)"/>
<path d="M0 0 C2 1 2 1 2 1 Z " fill="#88BF3A" transform="translate(103,284)"/>
<path d="M0 0 C2 1 2 1 2 1 Z " fill="#88BF3B" transform="translate(258,282)"/>
<path d="M0 0 C2 1 2 1 2 1 Z " fill="#88BF36" transform="translate(263,278)"/>
<path d="M0 0 C2 1 2 1 2 1 Z " fill="#88BF38" transform="translate(95,278)"/>
<path d="M0 0 C2 1 2 1 2 1 Z " fill="#8BBA4C" transform="translate(352,267)"/>
<path d="M0 0 C2 1 2 1 2 1 Z " fill="#8ABE39" transform="translate(354,266)"/>
<path d="M0 0 C2 1 2 1 2 1 Z " fill="#8ABE3B" transform="translate(4,266)"/>
<path d="M0 0 C2 1 2 1 2 1 Z " fill="#8CB94D" transform="translate(67,265)"/>
<path d="M0 0 C2 1 2 1 2 1 Z " fill="#8BBC40" transform="translate(288,264)"/>
<path d="M0 0 C2 1 2 1 2 1 Z " fill="#8ABD3E" transform="translate(70,264)"/>
<path d="M0 0 C2 1 2 1 2 1 Z " fill="#8CBB47" transform="translate(285,263)"/>
<path d="M0 0 C2 1 2 1 2 1 Z " fill="#8CBB47" transform="translate(73,263)"/>
<path d="" fill="#8BBD3D" transform="translate(0,0)"/>
<path d="" fill="#8BBD3B" transform="translate(0,0)"/>
<path d="" fill="#88BD44" transform="translate(0,0)"/>
<path d="" fill="#8ABC46" transform="translate(0,0)"/>
<path d="" fill="#8BBC3D" transform="translate(0,0)"/>
<path d="" fill="#8BBD3C" transform="translate(0,0)"/>
<path d="" fill="#8ABE3C" transform="translate(0,0)"/>
<path d="" fill="#EB932D" transform="translate(0,0)"/>
<path d="" fill="#EB932F" transform="translate(0,0)"/>
<path d="" fill="#8BBE37" transform="translate(0,0)"/>
<path d="" fill="#89BE3B" transform="translate(0,0)"/>
<path d="" fill="#89BD41" transform="translate(0,0)"/>
<path d="" fill="#8BBD3F" transform="translate(0,0)"/>
<path d="" fill="#89BE3D" transform="translate(0,0)"/>
<path d="" fill="#89BE3B" transform="translate(0,0)"/>
<path d="" fill="#8BBE39" transform="translate(0,0)"/>
<path d="" fill="#8CBC3D" transform="translate(0,0)"/>
<path d="" fill="#8BBE3B" transform="translate(0,0)"/>
<path d="" fill="#8BBE3B" transform="translate(0,0)"/>
<path d="" fill="#89BE3D" transform="translate(0,0)"/>
<path d="" fill="#8BBD3F" transform="translate(0,0)"/>
<path d="" fill="#8BBE39" transform="translate(0,0)"/>
<path d="" fill="#8CBC3D" transform="translate(0,0)"/>
<path d="" fill="#8BBC41" transform="translate(0,0)"/>
<path d="" fill="#89BE3F" transform="translate(0,0)"/>
<path d="" fill="#86C03B" transform="translate(0,0)"/>
<path d="" fill="#89C035" transform="translate(0,0)"/>
<path d="" fill="#86C139" transform="translate(0,0)"/>
<path d="" fill="#89BF39" transform="translate(0,0)"/>
<path d="" fill="#88C133" transform="translate(0,0)"/>
<path d="" fill="#89BF37" transform="translate(0,0)"/>
<path d="" fill="#89BE3D" transform="translate(0,0)"/>
<path d="" fill="#86C135" transform="translate(0,0)"/>
<path d="" fill="#89BE3B" transform="translate(0,0)"/>
<path d="" fill="#89BF37" transform="translate(0,0)"/>
<path d="" fill="#89BE3D" transform="translate(0,0)"/>
<path d="" fill="#89BE3B" transform="translate(0,0)"/>
<path d="" fill="#89BE3B" transform="translate(0,0)"/>
<path d="" fill="#89BF39" transform="translate(0,0)"/>
<path d="" fill="#88C039" transform="translate(0,0)"/>
<path d="" fill="#8BBD3D" transform="translate(0,0)"/>
<path d="" fill="#88C037" transform="translate(0,0)"/>
<path d="" fill="#86C135" transform="translate(0,0)"/>
<path d="" fill="#86C135" transform="translate(0,0)"/>
<path d="" fill="#89BF37" transform="translate(0,0)"/>
<path d="" fill="#89BF37" transform="translate(0,0)"/>
<path d="" fill="#89BE3B" transform="translate(0,0)"/>
<path d="" fill="#89BE3B" transform="translate(0,0)"/>
<path d="" fill="#89BF37" transform="translate(0,0)"/>
<path d="" fill="#89BF37" transform="translate(0,0)"/>
<path d="" fill="#89BF37" transform="translate(0,0)"/>
<path d="" fill="#89BF37" transform="translate(0,0)"/>
<path d="" fill="#89BF37" transform="translate(0,0)"/>
<path d="" fill="#89BF37" transform="translate(0,0)"/>
<path d="" fill="#89BF37" transform="translate(0,0)"/>
<path d="" fill="#89BF37" transform="translate(0,0)"/>
<path d="" fill="#8BBC45" transform="translate(0,0)"/>
<path d="" fill="#89BE3D" transform="translate(0,0)"/>
<path d="" fill="#89BD41" transform="translate(0,0)"/>
<path d="" fill="#89C035" transform="translate(0,0)"/>
<path d="" fill="#8BBD3D" transform="translate(0,0)"/>
<path d="" fill="#8BBE39" transform="translate(0,0)"/>
<path d="" fill="#89BF37" transform="translate(0,0)"/>
<path d="" fill="#8CBD3B" transform="translate(0,0)"/>
<path d="" fill="#88C037" transform="translate(0,0)"/>
<path d="" fill="#88C039" transform="translate(0,0)"/>
<path d="" fill="#8CBD39" transform="translate(0,0)"/>
<path d="" fill="#89BF39" transform="translate(0,0)"/>
</svg>
